<svg width="200" height="300" viewBox="0 0 200 300" fill="none" xmlns="http://www.w3.org/2000/svg">
<g opacity="0.22">
<path d="M0 80H40V40H100V80H160" stroke="#FF2200"/>
<path d="M40 83C41.6569 83 43 81.6569 43 80C43 78.3431 41.6569 77 40 77C38.3431 77 37 78.3431 37 80C37 81.6569 38.3431 83 40 83Z" fill="#FF2200"/>
<path d="M100 43C101.657 43 103 41.6569 103 40C103 38.3431 101.657 37 100 37C98.3431 37 97 38.3431 97 40C97 41.6569 98.3431 43 100 43Z" fill="#FF2200"/>
<path opacity="0.5" d="M160 83C161.657 83 163 81.6569 163 80C163 78.3431 161.657 77 160 77C158.343 77 157 78.3431 157 80C157 81.6569 158.343 83 160 83Z" fill="#FF2200"/>
<path d="M0 160H60V200H120" stroke="#FF7A06"/>
<path d="M60 163C61.6569 163 63 161.657 63 160C63 158.343 61.6569 157 60 157C58.3431 157 57 158.343 57 160C57 161.657 58.3431 163 60 163Z" fill="#FF7A06"/>
<path opacity="0.5" d="M120 203C121.657 203 123 201.657 123 200C123 198.343 121.657 197 120 197C118.343 197 117 198.343 117 200C117 201.657 118.343 203 120 203Z" fill="#FF7A06"/>
<path d="M44 76H36V84H44V76Z" stroke="#FF2200"/>
<path d="M104 36H96V44H104V36Z" stroke="#FF2200"/>
<path opacity="0.4" d="M40 86C43.3137 86 46 83.3137 46 80C46 76.6863 43.3137 74 40 74C36.6863 74 34 76.6863 34 80C34 83.3137 36.6863 86 40 86Z" stroke="#FF2200" stroke-width="0.5"/>
<path opacity="0.4" d="M100 46C103.314 46 106 43.3137 106 40C106 36.6863 103.314 34 100 34C96.6863 34 94 36.6863 94 40C94 43.3137 96.6863 46 100 46Z" stroke="#FF2200" stroke-width="0.5"/>
</g>
</svg>
