<svg width="268" height="54" viewBox="0 0 268 54" fill="none" xmlns="http://www.w3.org/2000/svg">
<mask id="mask0_3848_16660" style="mask-type:alpha" maskUnits="userSpaceOnUse" x="0" y="0" width="268" height="54">
<g clip-path="url(#clip0_3848_16660)">
<path d="M16 0H268V38L252 54H0V16L16 0Z" fill="black"/>
</g>
</mask>
<g mask="url(#mask0_3848_16660)">
<g filter="url(#filter0_dd_3848_16660)">
<rect width="268" height="54" fill="url(#paint0_linear_3848_16660)"/>
<path d="M67.4842 31V21.64H71.3517C71.4427 21.64 71.5597 21.6443 71.7027 21.653C71.8457 21.6573 71.9779 21.6703 72.0992 21.692C72.6409 21.7743 73.0872 21.9542 73.4382 22.2315C73.7936 22.5088 74.0557 22.8598 74.2247 23.2845C74.3981 23.7048 74.4847 24.1728 74.4847 24.6885C74.4847 25.1998 74.3981 25.6678 74.2247 26.0925C74.0514 26.5128 73.7871 26.8617 73.4317 27.139C73.0807 27.4163 72.6366 27.5962 72.0992 27.6785C71.9779 27.6958 71.8436 27.7088 71.6962 27.7175C71.5532 27.7262 71.4384 27.7305 71.3517 27.7305H69.0507V31H67.4842ZM69.0507 26.268H71.2867C71.3734 26.268 71.4709 26.2637 71.5792 26.255C71.6876 26.2463 71.7872 26.229 71.8782 26.203C72.1382 26.138 72.3419 26.0232 72.4892 25.8585C72.6409 25.6938 72.7471 25.5075 72.8077 25.2995C72.8727 25.0915 72.9052 24.8878 72.9052 24.6885C72.9052 24.4892 72.8727 24.2855 72.8077 24.0775C72.7471 23.8652 72.6409 23.6767 72.4892 23.512C72.3419 23.3473 72.1382 23.2325 71.8782 23.1675C71.7872 23.1415 71.6876 23.1263 71.5792 23.122C71.4709 23.1133 71.3734 23.109 71.2867 23.109H69.0507V26.268ZM78.917 31V21.64H80.4835V29.531H84.6175V31H78.917ZM88.0686 31L91.0196 21.64H93.3141L96.2651 31H94.6531L91.9751 22.602H92.3261L89.6806 31H88.0686ZM89.7131 28.972V27.5095H94.6271V28.972H89.7131ZM101.941 31V27.165L98.7559 21.64H100.582L102.734 25.371L104.879 21.64H106.705L103.527 27.165V31H101.941ZM115.695 31V21.64H121.331V23.2065H117.262V25.54H120.551V27.1H117.262V31H115.695ZM125.5 31V21.64H129.367C129.458 21.64 129.575 21.6443 129.718 21.653C129.861 21.6573 129.994 21.6703 130.115 21.692C130.657 21.7743 131.103 21.9542 131.454 22.2315C131.809 22.5088 132.071 22.8598 132.24 23.2845C132.414 23.7048 132.5 24.1728 132.5 24.6885C132.5 25.4512 132.308 26.1077 131.922 26.658C131.536 27.204 130.945 27.542 130.147 27.672L129.478 27.7305H127.066V31H125.5ZM130.875 31L129.029 27.191L130.622 26.84L132.65 31H130.875ZM127.066 26.268H129.302C129.389 26.268 129.487 26.2637 129.595 26.255C129.703 26.2463 129.803 26.229 129.894 26.203C130.154 26.138 130.358 26.0232 130.505 25.8585C130.657 25.6938 130.763 25.5075 130.823 25.2995C130.888 25.0915 130.921 24.8878 130.921 24.6885C130.921 24.4892 130.888 24.2855 130.823 24.0775C130.763 23.8652 130.657 23.6767 130.505 23.512C130.358 23.3473 130.154 23.2325 129.894 23.1675C129.803 23.1415 129.703 23.1263 129.595 23.122C129.487 23.1133 129.389 23.109 129.302 23.109H127.066V26.268ZM137.082 31V21.64H143.127V23.109H138.648V25.4165H142.347V26.8855H138.648V29.531H143.127V31H137.082ZM147.686 31V21.64H153.731V23.109H149.253V25.4165H152.951V26.8855H149.253V29.531H153.731V31H147.686ZM163.893 31V21.64H165.479L169.821 28.2375V21.64H171.407V31H169.821L165.479 24.4025V31H163.893ZM180.183 31.195C179.247 31.195 178.445 30.9913 177.778 30.584C177.111 30.1723 176.597 29.6003 176.237 28.868C175.882 28.1357 175.704 27.2863 175.704 26.32C175.704 25.3537 175.882 24.5043 176.237 23.772C176.597 23.0397 177.111 22.4698 177.778 22.0625C178.445 21.6508 179.247 21.445 180.183 21.445C181.119 21.445 181.921 21.6508 182.588 22.0625C183.26 22.4698 183.773 23.0397 184.128 23.772C184.488 24.5043 184.668 25.3537 184.668 26.32C184.668 27.2863 184.488 28.1357 184.128 28.868C183.773 29.6003 183.26 30.1723 182.588 30.584C181.921 30.9913 181.119 31.195 180.183 31.195ZM180.183 29.7195C180.811 29.7238 181.333 29.5852 181.749 29.3035C182.17 29.0218 182.484 28.6253 182.692 28.114C182.904 27.6027 183.01 27.0047 183.01 26.32C183.01 25.6353 182.904 25.0417 182.692 24.539C182.484 24.032 182.17 23.6377 181.749 23.356C181.333 23.0743 180.811 22.9292 180.183 22.9205C179.555 22.9162 179.032 23.0548 178.616 23.3365C178.2 23.6182 177.886 24.0147 177.674 24.526C177.466 25.0373 177.362 25.6353 177.362 26.32C177.362 27.0047 177.466 27.6005 177.674 28.1075C177.882 28.6102 178.194 29.0023 178.61 29.284C179.03 29.5657 179.555 29.7108 180.183 29.7195ZM190.544 31L187.808 21.64H189.452L191.318 28.4L193.177 21.653L194.821 21.64L196.687 28.4L198.546 21.64H200.19L197.46 31H195.913L193.996 24.344L192.091 31H190.544Z" fill="white"/>
</g>
</g>
<defs>
<filter id="filter0_dd_3848_16660" x="-60" y="-60" width="388" height="174" filterUnits="userSpaceOnUse" color-interpolation-filters="sRGB">
<feFlood flood-opacity="0" result="BackgroundImageFix"/>
<feColorMatrix in="SourceAlpha" type="matrix" values="0 0 0 0 0 0 0 0 0 0 0 0 0 0 0 0 0 0 127 0" result="hardAlpha"/>
<feOffset/>
<feGaussianBlur stdDeviation="30"/>
<feComposite in2="hardAlpha" operator="out"/>
<feColorMatrix type="matrix" values="0 0 0 0 0.607843 0 0 0 0 0.360784 0 0 0 0 1 0 0 0 0.2 0"/>
<feBlend mode="normal" in2="BackgroundImageFix" result="effect1_dropShadow_3848_16660"/>
<feColorMatrix in="SourceAlpha" type="matrix" values="0 0 0 0 0 0 0 0 0 0 0 0 0 0 0 0 0 0 127 0" result="hardAlpha"/>
<feOffset/>
<feGaussianBlur stdDeviation="15"/>
<feComposite in2="hardAlpha" operator="out"/>
<feColorMatrix type="matrix" values="0 0 0 0 0 0 0 0 0 0.784314 0 0 0 0 1 0 0 0 0.35 0"/>
<feBlend mode="normal" in2="effect1_dropShadow_3848_16660" result="effect2_dropShadow_3848_16660"/>
<feBlend mode="normal" in="SourceGraphic" in2="effect2_dropShadow_3848_16660" result="shape"/>
</filter>
<linearGradient id="paint0_linear_3848_16660" x1="53.5" y1="-53.5" x2="214.5" y2="107.5" gradientUnits="userSpaceOnUse">
<stop stop-color="#FD0606"/>
<stop offset="1" stop-color="#980000"/>
</linearGradient>
<clipPath id="clip0_3848_16660">
<rect width="268" height="54" fill="white"/>
</clipPath>
</defs>
</svg>
