<svg width="191" height="65" viewBox="0 0 191 65" fill="none" xmlns="http://www.w3.org/2000/svg">
<g opacity="0.5">
<path d="M32.5008 58.5C37.3277 58.5 41.957 56.5825 45.3701 53.1693C48.7833 49.7562 50.7008 45.1269 50.7008 40.3V24.7C50.7008 19.8731 48.7833 15.2438 45.3701 11.8307C41.957 8.41749 37.3277 6.5 32.5008 6.5C27.6738 6.5 23.0446 8.41749 19.6314 11.8307C16.2183 15.2438 14.3008 19.8731 14.3008 24.7V40.3C14.3008 45.1269 16.2183 49.7562 19.6314 53.1693C23.0446 56.5825 27.6738 58.5 32.5008 58.5ZM16.9008 24.7C16.9008 20.5626 18.5443 16.5947 21.4699 13.6691C24.3955 10.7436 28.3634 9.1 32.5008 9.1C36.6382 9.1 40.6061 10.7436 43.5317 13.6691C46.4572 16.5947 48.1008 20.5626 48.1008 24.7V40.3C48.1008 44.4374 46.4572 48.4053 43.5317 51.3309C40.6061 54.2564 36.6382 55.9 32.5008 55.9C28.3634 55.9 24.3955 54.2564 21.4699 51.3309C18.5443 48.4053 16.9008 44.4374 16.9008 40.3V24.7Z" fill="white"/>
<path d="M31.2003 31.8508H31.3173L31.5773 32.1238C31.6982 32.2456 31.842 32.3423 32.0004 32.4083C32.1588 32.4743 32.3287 32.5083 32.5003 32.5083C32.672 32.5083 32.8419 32.4743 33.0003 32.4083C33.1587 32.3423 33.3025 32.2456 33.4233 32.1238L33.6833 31.8508H33.8003V31.7338L41.2233 24.3238L39.3773 22.4778L33.8003 28.0678V14.3008H31.2003V28.0678L25.6233 22.4778L23.7773 24.3238L31.2003 31.7338V31.8508Z" fill="white"/>
</g>
<path d="M70.5616 39.255C69.7059 39.255 68.9352 39.1133 68.2496 38.83C67.5696 38.541 67.0057 38.133 66.5581 37.606C66.1161 37.079 65.8271 36.4528 65.6911 35.7275L66.9661 35.515C67.1701 36.3083 67.6007 36.9317 68.2581 37.385C68.9154 37.8327 69.7002 38.0565 70.6126 38.0565C71.2132 38.0565 71.7516 37.963 72.2276 37.776C72.7036 37.5833 73.0776 37.3113 73.3496 36.96C73.6216 36.6087 73.7576 36.1922 73.7576 35.7105C73.7576 35.3932 73.7009 35.124 73.5876 34.903C73.4742 34.6763 73.3241 34.4893 73.1371 34.342C72.9501 34.1947 72.7461 34.0728 72.5251 33.9765C72.3041 33.8745 72.0887 33.7923 71.8791 33.73L68.7766 32.8035C68.4026 32.6958 68.0569 32.5598 67.7396 32.3955C67.4222 32.2255 67.1446 32.0243 66.9066 31.792C66.6742 31.554 66.4929 31.2763 66.3626 30.959C66.2322 30.6417 66.1671 30.279 66.1671 29.871C66.1671 29.1797 66.3484 28.5818 66.7111 28.0775C67.0737 27.5732 67.5696 27.185 68.1986 26.913C68.8276 26.641 69.5444 26.5078 70.3491 26.5135C71.1651 26.5135 71.8932 26.658 72.5336 26.947C73.1796 27.236 73.7122 27.6497 74.1316 28.188C74.5509 28.7207 74.8286 29.3525 74.9646 30.0835L73.6556 30.3215C73.5706 29.7888 73.3751 29.327 73.0691 28.936C72.7631 28.545 72.3721 28.2447 71.8961 28.035C71.4257 27.8197 70.9072 27.7092 70.3406 27.7035C69.7909 27.7035 69.3007 27.797 68.8701 27.984C68.4451 28.1653 68.1079 28.4147 67.8586 28.732C67.6092 29.0493 67.4846 29.412 67.4846 29.82C67.4846 30.2337 67.5979 30.5652 67.8246 30.8145C68.0569 31.0638 68.3402 31.2593 68.6746 31.401C69.0146 31.5427 69.3432 31.6588 69.6606 31.7495L72.0576 32.455C72.3069 32.523 72.5987 32.6222 72.9331 32.7525C73.2731 32.8772 73.6017 33.0585 73.9191 33.2965C74.2421 33.5288 74.5084 33.8348 74.7181 34.2145C74.9277 34.5942 75.0326 35.0758 75.0326 35.6595C75.0326 36.2262 74.9192 36.7333 74.6926 37.181C74.4716 37.6287 74.1571 38.0055 73.7491 38.3115C73.3467 38.6175 72.8736 38.8498 72.3296 39.0085C71.7912 39.1728 71.2019 39.255 70.5616 39.255ZM80.5952 39.255C79.6715 39.255 78.8895 39.0482 78.2492 38.6345C77.6088 38.2208 77.1215 37.6513 76.7872 36.926C76.4585 36.195 76.2885 35.3563 76.2772 34.41C76.2885 33.4467 76.4642 32.6023 76.8042 31.877C77.1442 31.146 77.6343 30.5793 78.2747 30.177C78.915 29.769 79.6913 29.565 80.6037 29.565C81.533 29.565 82.3405 29.7917 83.0262 30.245C83.7175 30.6983 84.1907 31.3188 84.4457 32.1065L83.2217 32.4975C83.0063 31.9478 82.6635 31.5228 82.1932 31.2225C81.7285 30.9165 81.1958 30.7635 80.5952 30.7635C79.9208 30.7635 79.3627 30.9193 78.9207 31.231C78.4787 31.537 78.15 31.9648 77.9347 32.5145C77.7193 33.0642 77.6088 33.696 77.6032 34.41C77.6145 35.5093 77.8695 36.3933 78.3682 37.062C78.8668 37.725 79.6092 38.0565 80.5952 38.0565C81.2185 38.0565 81.7483 37.9148 82.1847 37.6315C82.6267 37.3425 82.961 36.9232 83.1877 36.3735L84.4457 36.7475C84.1057 37.5635 83.607 38.1868 82.9497 38.6175C82.2923 39.0425 81.5075 39.255 80.5952 39.255ZM86.2003 39V29.82H87.3223V32.03L87.1013 31.741C87.2033 31.469 87.3364 31.2197 87.5008 30.993C87.6651 30.7607 87.8436 30.5708 88.0363 30.4235C88.2743 30.2138 88.5519 30.0552 88.8693 29.9475C89.1866 29.8342 89.5068 29.769 89.8298 29.752C90.1528 29.7293 90.4474 29.752 90.7138 29.82V30.993C90.3794 30.908 90.0139 30.8882 89.6173 30.9335C89.2206 30.9788 88.8551 31.1375 88.5208 31.4095C88.2148 31.6475 87.9853 31.9337 87.8323 32.268C87.6793 32.5967 87.5773 32.948 87.5263 33.322C87.4753 33.6903 87.4498 34.0558 87.4498 34.4185V39H86.2003ZM95.9937 39.255C95.0814 39.255 94.3022 39.0482 93.6562 38.6345C93.0102 38.2208 92.5144 37.6485 92.1687 36.9175C91.823 36.1865 91.6502 35.3478 91.6502 34.4015C91.6502 33.4382 91.8259 32.5938 92.1772 31.8685C92.5285 31.1432 93.0272 30.5793 93.6732 30.177C94.3249 29.769 95.0984 29.565 95.9937 29.565C96.9117 29.565 97.6937 29.7718 98.3397 30.1855C98.9914 30.5935 99.4872 31.163 99.8272 31.894C100.173 32.6193 100.346 33.4552 100.346 34.4015C100.346 35.3648 100.173 36.212 99.8272 36.943C99.4815 37.6683 98.9829 38.235 98.3312 38.643C97.6795 39.051 96.9004 39.255 95.9937 39.255ZM95.9937 38.0565C97.0137 38.0565 97.773 37.7193 98.2717 37.045C98.7704 36.365 99.0197 35.4838 99.0197 34.4015C99.0197 33.2908 98.7675 32.4068 98.2632 31.7495C97.7645 31.0922 97.008 30.7635 95.9937 30.7635C95.308 30.7635 94.7414 30.9193 94.2937 31.231C93.8517 31.537 93.5202 31.9648 93.2992 32.5145C93.0839 33.0585 92.9762 33.6875 92.9762 34.4015C92.9762 35.5065 93.2312 36.3933 93.7412 37.062C94.2512 37.725 95.002 38.0565 95.9937 38.0565ZM102.391 39V26.505H103.64V39H102.391ZM106.359 39V26.505H107.608V39H106.359ZM118.558 39C118.042 39.1077 117.532 39.1502 117.028 39.1275C116.529 39.1048 116.081 38.9972 115.685 38.8045C115.294 38.6118 114.996 38.3115 114.792 37.9035C114.628 37.5635 114.537 37.2207 114.52 36.875C114.509 36.5237 114.503 36.1242 114.503 35.6765V27.27H115.744V35.6255C115.744 36.0108 115.747 36.3338 115.753 36.5945C115.764 36.8495 115.823 37.0762 115.931 37.2745C116.135 37.6542 116.458 37.8808 116.9 37.9545C117.348 38.0282 117.9 38.0112 118.558 37.9035V39ZM112.54 30.891V29.82H118.558V30.891H112.54ZM123.868 39.255C122.955 39.255 122.176 39.0482 121.53 38.6345C120.884 38.2208 120.388 37.6485 120.043 36.9175C119.697 36.1865 119.524 35.3478 119.524 34.4015C119.524 33.4382 119.7 32.5938 120.051 31.8685C120.403 31.1432 120.901 30.5793 121.547 30.177C122.199 29.769 122.972 29.565 123.868 29.565C124.786 29.565 125.568 29.7718 126.214 30.1855C126.865 30.5935 127.361 31.163 127.701 31.894C128.047 32.6193 128.22 33.4552 128.22 34.4015C128.22 35.3648 128.047 36.212 127.701 36.943C127.356 37.6683 126.857 38.235 126.205 38.643C125.554 39.051 124.774 39.255 123.868 39.255ZM123.868 38.0565C124.888 38.0565 125.647 37.7193 126.146 37.045C126.644 36.365 126.894 35.4838 126.894 34.4015C126.894 33.2908 126.642 32.4068 126.137 31.7495C125.639 31.0922 124.882 30.7635 123.868 30.7635C123.182 30.7635 122.615 30.9193 122.168 31.231C121.726 31.537 121.394 31.9648 121.173 32.5145C120.958 33.0585 120.85 33.6875 120.85 34.4015C120.85 35.5065 121.105 36.3933 121.615 37.062C122.125 37.725 122.876 38.0565 123.868 38.0565ZM137.383 39.255C136.487 39.255 135.711 39.0567 135.054 38.66C134.402 38.2633 133.895 37.7052 133.532 36.9855C133.169 36.2658 132.988 35.4215 132.988 34.4525C132.988 33.4495 133.167 32.5825 133.524 31.8515C133.881 31.1205 134.382 30.5567 135.028 30.16C135.68 29.7633 136.448 29.565 137.332 29.565C138.238 29.565 139.012 29.7747 139.652 30.194C140.292 30.6077 140.777 31.2027 141.106 31.979C141.434 32.7553 141.584 33.6818 141.556 34.7585H140.281V34.3165C140.258 33.1265 140.001 32.2283 139.508 31.622C139.02 31.0157 138.306 30.7125 137.366 30.7125C136.38 30.7125 135.623 31.0327 135.096 31.673C134.575 32.3133 134.314 33.2257 134.314 34.41C134.314 35.566 134.575 36.4642 135.096 37.1045C135.623 37.7392 136.368 38.0565 137.332 38.0565C137.989 38.0565 138.561 37.9063 139.049 37.606C139.542 37.3 139.93 36.8608 140.213 36.2885L141.378 36.739C141.015 37.538 140.479 38.1585 139.771 38.6005C139.068 39.0368 138.272 39.255 137.383 39.255ZM133.872 34.7585V33.713H140.885V34.7585H133.872ZM142.09 39L145.677 34.359L142.167 29.82H143.663L146.408 33.3985L149.128 29.82H150.624L147.114 34.359L150.709 39H149.205L146.408 35.3195L143.595 39H142.09ZM156.198 39.255C155.353 39.255 154.639 39.0425 154.056 38.6175C153.472 38.1868 153.03 37.606 152.73 36.875C152.429 36.1383 152.279 35.3138 152.279 34.4015C152.279 33.4722 152.429 32.6448 152.73 31.9195C153.036 31.1885 153.483 30.6133 154.073 30.194C154.662 29.7747 155.387 29.565 156.249 29.565C157.087 29.565 157.807 29.7775 158.408 30.2025C159.008 30.6275 159.467 31.2055 159.785 31.9365C160.108 32.6675 160.269 33.4892 160.269 34.4015C160.269 35.3195 160.108 36.144 159.785 36.875C159.462 37.606 158.997 38.1868 158.391 38.6175C157.784 39.0425 157.053 39.255 156.198 39.255ZM152.067 43.08V29.82H153.189V36.7305H153.325V43.08H152.067ZM156.07 38.0905C156.711 38.0905 157.243 37.929 157.668 37.606C158.093 37.283 158.411 36.8438 158.62 36.2885C158.836 35.7275 158.943 35.0985 158.943 34.4015C158.943 33.7102 158.838 33.0868 158.629 32.5315C158.419 31.9762 158.099 31.537 157.668 31.214C157.243 30.891 156.702 30.7295 156.045 30.7295C155.404 30.7295 154.872 30.8853 154.447 31.197C154.027 31.5087 153.713 31.9422 153.503 32.4975C153.294 33.0472 153.189 33.6818 153.189 34.4015C153.189 35.1098 153.294 35.7445 153.503 36.3055C153.713 36.8608 154.03 37.2972 154.455 37.6145C154.88 37.9318 155.419 38.0905 156.07 38.0905ZM162.306 39V26.505H163.555V39H162.306ZM169.937 39.255C169.025 39.255 168.246 39.0482 167.6 38.6345C166.954 38.2208 166.458 37.6485 166.112 36.9175C165.766 36.1865 165.594 35.3478 165.594 34.4015C165.594 33.4382 165.769 32.5938 166.121 31.8685C166.472 31.1432 166.971 30.5793 167.617 30.177C168.268 29.769 169.042 29.565 169.937 29.565C170.855 29.565 171.637 29.7718 172.283 30.1855C172.935 30.5935 173.431 31.163 173.771 31.894C174.116 32.6193 174.289 33.4552 174.289 34.4015C174.289 35.3648 174.116 36.212 173.771 36.943C173.425 37.6683 172.926 38.235 172.275 38.643C171.623 39.051 170.844 39.255 169.937 39.255ZM169.937 38.0565C170.957 38.0565 171.716 37.7193 172.215 37.045C172.714 36.365 172.963 35.4838 172.963 34.4015C172.963 33.2908 172.711 32.4068 172.207 31.7495C171.708 31.0922 170.951 30.7635 169.937 30.7635C169.251 30.7635 168.685 30.9193 168.237 31.231C167.795 31.537 167.464 31.9648 167.243 32.5145C167.027 33.0585 166.92 33.6875 166.92 34.4015C166.92 35.5065 167.175 36.3933 167.685 37.062C168.195 37.725 168.945 38.0565 169.937 38.0565ZM176.164 39V29.82H177.286V32.03L177.065 31.741C177.167 31.469 177.3 31.2197 177.465 30.993C177.629 30.7607 177.807 30.5708 178 30.4235C178.238 30.2138 178.516 30.0552 178.833 29.9475C179.15 29.8342 179.471 29.769 179.794 29.752C180.117 29.7293 180.411 29.752 180.678 29.82V30.993C180.343 30.908 179.978 30.8882 179.581 30.9335C179.184 30.9788 178.819 31.1375 178.485 31.4095C178.179 31.6475 177.949 31.9337 177.796 32.268C177.643 32.5967 177.541 32.948 177.49 33.322C177.439 33.6903 177.414 34.0558 177.414 34.4185V39H176.164ZM186.009 39.255C185.113 39.255 184.337 39.0567 183.68 38.66C183.028 38.2633 182.521 37.7052 182.158 36.9855C181.795 36.2658 181.614 35.4215 181.614 34.4525C181.614 33.4495 181.793 32.5825 182.15 31.8515C182.507 31.1205 183.008 30.5567 183.654 30.16C184.306 29.7633 185.074 29.565 185.958 29.565C186.864 29.565 187.638 29.7747 188.278 30.194C188.918 30.6077 189.403 31.2027 189.732 31.979C190.06 32.7553 190.21 33.6818 190.182 34.7585H188.907V34.3165C188.884 33.1265 188.627 32.2283 188.134 31.622C187.646 31.0157 186.932 30.7125 185.992 30.7125C185.006 30.7125 184.249 31.0327 183.722 31.673C183.201 32.3133 182.94 33.2257 182.94 34.41C182.94 35.566 183.201 36.4642 183.722 37.1045C184.249 37.7392 184.994 38.0565 185.958 38.0565C186.615 38.0565 187.187 37.9063 187.675 37.606C188.168 37.3 188.556 36.8608 188.839 36.2885L190.004 36.739C189.641 37.538 189.105 38.1585 188.397 38.6005C187.694 39.0368 186.898 39.255 186.009 39.255ZM182.498 34.7585V33.713H189.511V34.7585H182.498Z" fill="white" fill-opacity="0.8"/>
</svg>
